<?xml version="1.0" ?><svg version="1.1" xmlns="http://www.w3.org/2000/svg" xmlns:svg="http://www.w3.org/2000/svg"><text x = "100" y = "50">aip1</text>
<text x = "150" y = "50">cap2</text>
<text x = "200" y = "50">crn1</text>
<text x = "250" y = "50">gmf1</text>
<text x = "300" y = "50">srv2</text>
<text x = "350" y = "50">twf1</text>
<text x = "0" y = "100">WT</text>
<rect x = "50" y = "100" width = "50" height = "50" style = "fill:#006600" /><rect x = "100" y = "100" width = "50" height = "50" style = "fill:#CCCC00" /><rect x = "150" y = "100" width = "50" height = "50" style = "fill:#CCCC00" /><rect x = "200" y = "100" width = "50" height = "50" style = "fill:#006600" /><rect x = "250" y = "100" width = "50" height = "50" style = "fill:#FF9900" /><rect x = "300" y = "100" width = "50" height = "50" style = "fill:#006600" /><text x = "0" y = "150">aip1</text>
<rect x = "50" y = "150" width = "50" height = "50" style = "fill:Black" /><rect x = "100" y = "150" width = "50" height = "50" style = "fill:#FF9900" /><rect x = "150" y = "150" width = "50" height = "50" style = "fill:#006600" /><rect x = "200" y = "150" width = "50" height = "50" style = "fill:#006600" /><rect x = "250" y = "150" width = "50" height = "50" style = "fill:Black" /><rect x = "300" y = "150" width = "50" height = "50" style = "fill:#006600" /><text x = "0" y = "200">cap2</text>
<rect x = "50" y = "200" width = "50" height = "50" style = "fill:#FF9900" /><rect x = "100" y = "200" width = "50" height = "50" style = "fill:Black" /><rect x = "150" y = "200" width = "50" height = "50" style = "fill:#006600" /><rect x = "200" y = "200" width = "50" height = "50" style = "fill:#006600" /><rect x = "250" y = "200" width = "50" height = "50" style = "fill:Black" /><rect x = "300" y = "200" width = "50" height = "50" style = "fill:#FF9900" /><text x = "0" y = "250">crn1</text>
<rect x = "50" y = "250" width = "50" height = "50" style = "fill:#006600" /><rect x = "100" y = "250" width = "50" height = "50" style = "fill:#006600" /><rect x = "150" y = "250" width = "50" height = "50" style = "fill:Black" /><rect x = "200" y = "250" width = "50" height = "50" style = "fill:#006600" /><rect x = "250" y = "250" width = "50" height = "50" style = "fill:#FF9900" /><rect x = "300" y = "250" width = "50" height = "50" style = "fill:#006600" /><text x = "0" y = "300">gmf1</text>
<rect x = "50" y = "300" width = "50" height = "50" style = "fill:#006600" /><rect x = "100" y = "300" width = "50" height = "50" style = "fill:#006600" /><rect x = "150" y = "300" width = "50" height = "50" style = "fill:#FFFF00" /><rect x = "200" y = "300" width = "50" height = "50" style = "fill:Black" /><rect x = "250" y = "300" width = "50" height = "50" style = "fill:#FF9900" /><rect x = "300" y = "300" width = "50" height = "50" style = "fill:#006600" /><text x = "0" y = "350">srv2</text>
<rect x = "50" y = "350" width = "50" height = "50" style = "fill:Black" /><rect x = "100" y = "350" width = "50" height = "50" style = "fill:Black" /><rect x = "150" y = "350" width = "50" height = "50" style = "fill:#CCCC00" /><rect x = "200" y = "350" width = "50" height = "50" style = "fill:#006600" /><rect x = "250" y = "350" width = "50" height = "50" style = "fill:Black" /><rect x = "300" y = "350" width = "50" height = "50" style = "fill:#CCCC00" /><text x = "0" y = "400">twf1</text>
<rect x = "50" y = "400" width = "50" height = "50" style = "fill:#006600" /><rect x = "100" y = "400" width = "50" height = "50" style = "fill:#FF9900" /><rect x = "150" y = "400" width = "50" height = "50" style = "fill:#006600" /><rect x = "200" y = "400" width = "50" height = "50" style = "fill:#006600" /><rect x = "250" y = "400" width = "50" height = "50" style = "fill:#FF6600" /><rect x = "300" y = "400" width = "50" height = "50" style = "fill:Black" /><text x = "0" y = "450">aip1 cap2</text>
<rect x = "50" y = "450" width = "50" height = "50" style = "fill:Black" /><rect x = "100" y = "450" width = "50" height = "50" style = "fill:Black" /><rect x = "150" y = "450" width = "50" height = "50" style = "fill:Black" /><rect x = "200" y = "450" width = "50" height = "50" style = "fill:Black" /><rect x = "250" y = "450" width = "50" height = "50" style = "fill:Black" /><rect x = "300" y = "450" width = "50" height = "50" style = "fill:#006600" /><text x = "0" y = "500">aip1 crn1</text>
<rect x = "50" y = "500" width = "50" height = "50" style = "fill:Black" /><rect x = "100" y = "500" width = "50" height = "50" style = "fill:Black" /><rect x = "150" y = "500" width = "50" height = "50" style = "fill:Black" /><rect x = "200" y = "500" width = "50" height = "50" style = "fill:#006600" /><rect x = "250" y = "500" width = "50" height = "50" style = "fill:Black" /><rect x = "300" y = "500" width = "50" height = "50" style = "fill:#CCCC00" /><text x = "0" y = "550">aip1 gmf1</text>
<rect x = "50" y = "550" width = "50" height = "50" style = "fill:Black" /><rect x = "100" y = "550" width = "50" height = "50" style = "fill:Black" /><rect x = "150" y = "550" width = "50" height = "50" style = "fill:#006600" /><rect x = "200" y = "550" width = "50" height = "50" style = "fill:Black" /><rect x = "250" y = "550" width = "50" height = "50" style = "fill:Black" /><rect x = "300" y = "550" width = "50" height = "50" style = "fill:#FFFF00" /><text x = "0" y = "600">aip1 twf1</text>
<rect x = "50" y = "600" width = "50" height = "50" style = "fill:Black" /><rect x = "100" y = "600" width = "50" height = "50" style = "fill:#FF9900" /><rect x = "150" y = "600" width = "50" height = "50" style = "fill:#FFFF00" /><rect x = "200" y = "600" width = "50" height = "50" style = "fill:#FFFF00" /><rect x = "250" y = "600" width = "50" height = "50" style = "fill:Black" /><rect x = "300" y = "600" width = "50" height = "50" style = "fill:Black" /><text x = "0" y = "650">cap2 crn1</text>
<rect x = "50" y = "650" width = "50" height = "50" style = "fill:Black" /><rect x = "100" y = "650" width = "50" height = "50" style = "fill:Black" /><rect x = "150" y = "650" width = "50" height = "50" style = "fill:Black" /><rect x = "200" y = "650" width = "50" height = "50" style = "fill:#006600" /><rect x = "250" y = "650" width = "50" height = "50" style = "fill:Black" /><rect x = "300" y = "650" width = "50" height = "50" style = "fill:#006600" /><text x = "0" y = "700">cap2 gmf1</text>
<rect x = "50" y = "700" width = "50" height = "50" style = "fill:Black" /><rect x = "100" y = "700" width = "50" height = "50" style = "fill:Black" /><rect x = "150" y = "700" width = "50" height = "50" style = "fill:#CCCC00" /><rect x = "200" y = "700" width = "50" height = "50" style = "fill:Black" /><rect x = "250" y = "700" width = "50" height = "50" style = "fill:Black" /><rect x = "300" y = "700" width = "50" height = "50" style = "fill:#006600" /><text x = "0" y = "750">cap2 twf1</text>
<rect x = "50" y = "750" width = "50" height = "50" style = "fill:#CCCC00" /><rect x = "100" y = "750" width = "50" height = "50" style = "fill:Black" /><rect x = "150" y = "750" width = "50" height = "50" style = "fill:#006600" /><rect x = "200" y = "750" width = "50" height = "50" style = "fill:#006600" /><rect x = "250" y = "750" width = "50" height = "50" style = "fill:Black" /><rect x = "300" y = "750" width = "50" height = "50" style = "fill:Black" /><text x = "0" y = "800">crn1 gmf1</text>
<rect x = "50" y = "800" width = "50" height = "50" style = "fill:#006600" /><rect x = "100" y = "800" width = "50" height = "50" style = "fill:#FF9900" /><rect x = "150" y = "800" width = "50" height = "50" style = "fill:Black" /><rect x = "200" y = "800" width = "50" height = "50" style = "fill:Black" /><rect x = "250" y = "800" width = "50" height = "50" style = "fill:#FF6600" /><rect x = "300" y = "800" width = "50" height = "50" style = "fill:#006600" /><text x = "0" y = "850">crn1 srv2</text>
<rect x = "50" y = "850" width = "50" height = "50" style = "fill:Black" /><rect x = "100" y = "850" width = "50" height = "50" style = "fill:Black" /><rect x = "150" y = "850" width = "50" height = "50" style = "fill:Black" /><rect x = "200" y = "850" width = "50" height = "50" style = "fill:#006600" /><rect x = "250" y = "850" width = "50" height = "50" style = "fill:Black" /><rect x = "300" y = "850" width = "50" height = "50" style = "fill:Black" /><text x = "0" y = "900">crn1 twf1</text>
<rect x = "50" y = "900" width = "50" height = "50" style = "fill:#CCCC00" /><rect x = "100" y = "900" width = "50" height = "50" style = "fill:#006600" /><rect x = "150" y = "900" width = "50" height = "50" style = "fill:Black" /><rect x = "200" y = "900" width = "50" height = "50" style = "fill:#006600" /><rect x = "250" y = "900" width = "50" height = "50" style = "fill:Black" /><rect x = "300" y = "900" width = "50" height = "50" style = "fill:Black" /><text x = "0" y = "950">gmf1 srv2</text>
<rect x = "50" y = "950" width = "50" height = "50" style = "fill:Black" /><rect x = "100" y = "950" width = "50" height = "50" style = "fill:Black" /><rect x = "150" y = "950" width = "50" height = "50" style = "fill:#006600" /><rect x = "200" y = "950" width = "50" height = "50" style = "fill:Black" /><rect x = "250" y = "950" width = "50" height = "50" style = "fill:Black" /><rect x = "300" y = "950" width = "50" height = "50" style = "fill:#CCCC00" /><text x = "0" y = "1000">gmf1 twf1</text>
<rect x = "50" y = "1000" width = "50" height = "50" style = "fill:#FFFF00" /><rect x = "100" y = "1000" width = "50" height = "50" style = "fill:#006600" /><rect x = "150" y = "1000" width = "50" height = "50" style = "fill:#006600" /><rect x = "200" y = "1000" width = "50" height = "50" style = "fill:Black" /><rect x = "250" y = "1000" width = "50" height = "50" style = "fill:#FF9900" /><rect x = "300" y = "1000" width = "50" height = "50" style = "fill:Black" /><text x = "0" y = "1050">srv2 twf1</text>
<rect x = "50" y = "1050" width = "50" height = "50" style = "fill:Black" /><rect x = "100" y = "1050" width = "50" height = "50" style = "fill:Black" /><rect x = "150" y = "1050" width = "50" height = "50" style = "fill:Black" /><rect x = "200" y = "1050" width = "50" height = "50" style = "fill:#006600" /><rect x = "250" y = "1050" width = "50" height = "50" style = "fill:Black" /><rect x = "300" y = "1050" width = "50" height = "50" style = "fill:Black" /><text x = "0" y = "1100">aip1 cap2 twf1</text>
<rect x = "50" y = "1100" width = "50" height = "50" style = "fill:Black" /><rect x = "100" y = "1100" width = "50" height = "50" style = "fill:Black" /><rect x = "150" y = "1100" width = "50" height = "50" style = "fill:Black" /><rect x = "200" y = "1100" width = "50" height = "50" style = "fill:Black" /><rect x = "250" y = "1100" width = "50" height = "50" style = "fill:Black" /><rect x = "300" y = "1100" width = "50" height = "50" style = "fill:Black" /><text x = "0" y = "1150">aip1 crn1 gmf1</text>
<rect x = "50" y = "1150" width = "50" height = "50" style = "fill:Black" /><rect x = "100" y = "1150" width = "50" height = "50" style = "fill:Black" /><rect x = "150" y = "1150" width = "50" height = "50" style = "fill:Black" /><rect x = "200" y = "1150" width = "50" height = "50" style = "fill:Black" /><rect x = "250" y = "1150" width = "50" height = "50" style = "fill:Black" /><rect x = "300" y = "1150" width = "50" height = "50" style = "fill:#FF9900" /><text x = "0" y = "1200">aip1 crn1 twf1</text>
<rect x = "50" y = "1200" width = "50" height = "50" style = "fill:Black" /><rect x = "100" y = "1200" width = "50" height = "50" style = "fill:Black" /><rect x = "150" y = "1200" width = "50" height = "50" style = "fill:Black" /><rect x = "200" y = "1200" width = "50" height = "50" style = "fill:#FF9900" /><rect x = "250" y = "1200" width = "50" height = "50" style = "fill:Black" /><rect x = "300" y = "1200" width = "50" height = "50" style = "fill:Black" /><text x = "0" y = "1250">aip1 gmf1 twf1</text>
<rect x = "50" y = "1250" width = "50" height = "50" style = "fill:Black" /><rect x = "100" y = "1250" width = "50" height = "50" style = "fill:Black" /><rect x = "150" y = "1250" width = "50" height = "50" style = "fill:#FF9900" /><rect x = "200" y = "1250" width = "50" height = "50" style = "fill:Black" /><rect x = "250" y = "1250" width = "50" height = "50" style = "fill:Black" /><rect x = "300" y = "1250" width = "50" height = "50" style = "fill:Black" /><text x = "0" y = "1300">cap2 crn1 gmf1</text>
<rect x = "50" y = "1300" width = "50" height = "50" style = "fill:Black" /><rect x = "100" y = "1300" width = "50" height = "50" style = "fill:Black" /><rect x = "150" y = "1300" width = "50" height = "50" style = "fill:Black" /><rect x = "200" y = "1300" width = "50" height = "50" style = "fill:Black" /><rect x = "250" y = "1300" width = "50" height = "50" style = "fill:Black" /><rect x = "300" y = "1300" width = "50" height = "50" style = "fill:#006600" /><text x = "0" y = "1350">cap2 crn1 twf1</text>
<rect x = "50" y = "1350" width = "50" height = "50" style = "fill:Black" /><rect x = "100" y = "1350" width = "50" height = "50" style = "fill:Black" /><rect x = "150" y = "1350" width = "50" height = "50" style = "fill:Black" /><rect x = "200" y = "1350" width = "50" height = "50" style = "fill:#006600" /><rect x = "250" y = "1350" width = "50" height = "50" style = "fill:Black" /><rect x = "300" y = "1350" width = "50" height = "50" style = "fill:Black" /><text x = "0" y = "1400">cap2 gmf1 twf1</text>
<rect x = "50" y = "1400" width = "50" height = "50" style = "fill:Black" /><rect x = "100" y = "1400" width = "50" height = "50" style = "fill:Black" /><rect x = "150" y = "1400" width = "50" height = "50" style = "fill:#006600" /><rect x = "200" y = "1400" width = "50" height = "50" style = "fill:Black" /><rect x = "250" y = "1400" width = "50" height = "50" style = "fill:Black" /><rect x = "300" y = "1400" width = "50" height = "50" style = "fill:Black" /><text x = "0" y = "1450">crn1 gmf1 srv2</text>
<rect x = "50" y = "1450" width = "50" height = "50" style = "fill:Black" /><rect x = "100" y = "1450" width = "50" height = "50" style = "fill:Black" /><rect x = "150" y = "1450" width = "50" height = "50" style = "fill:Black" /><rect x = "200" y = "1450" width = "50" height = "50" style = "fill:Black" /><rect x = "250" y = "1450" width = "50" height = "50" style = "fill:Black" /><rect x = "300" y = "1450" width = "50" height = "50" style = "fill:Black" /><text x = "0" y = "1500">crn1 gmf1 twf1</text>
<rect x = "50" y = "1500" width = "50" height = "50" style = "fill:#FF9900" /><rect x = "100" y = "1500" width = "50" height = "50" style = "fill:#FF9900" /><rect x = "150" y = "1500" width = "50" height = "50" style = "fill:Black" /><rect x = "200" y = "1500" width = "50" height = "50" style = "fill:Black" /><rect x = "250" y = "1500" width = "50" height = "50" style = "fill:Black" /><rect x = "300" y = "1500" width = "50" height = "50" style = "fill:Black" /><text x = "0" y = "1550">gmf1 srv2 twf1</text>
<rect x = "50" y = "1550" width = "50" height = "50" style = "fill:Black" /><rect x = "100" y = "1550" width = "50" height = "50" style = "fill:Black" /><rect x = "150" y = "1550" width = "50" height = "50" style = "fill:Black" /><rect x = "200" y = "1550" width = "50" height = "50" style = "fill:Black" /><rect x = "250" y = "1550" width = "50" height = "50" style = "fill:Black" /><rect x = "300" y = "1550" width = "50" height = "50" style = "fill:Black" /></svg>